HIERARCHY
ROOT joint_Root
{
	OFFSET 0.0 0.0 0.0
	CHANNELS 6 Xposition Yposition Zposition Zrotation Xrotation Yrotation 
	JOINT Hips
	{
		OFFSET 4.5925 91.4895 -427.239
		CHANNELS 6 Xposition Yposition Zposition Zrotation Xrotation Yrotation 
		JOINT Spine
		{
			OFFSET 15.7357 0.0 0.0
			CHANNELS 6 Xposition Yposition Zposition Zrotation Xrotation Yrotation 
			JOINT Chest
			{
				OFFSET 8.98455 -0.406207 0.0
				CHANNELS 6 Xposition Yposition Zposition Zrotation Xrotation Yrotation 
				JOINT Neck
				{
					OFFSET 16.3773 0.0 0.0
					CHANNELS 6 Xposition Yposition Zposition Zrotation Xrotation Yrotation 
					JOINT Head
					{
						OFFSET 6.45672 0.0 0.0
						CHANNELS 6 Xposition Yposition Zposition Zrotation Xrotation Yrotation 
						End Site
						{
							OFFSET 0.0 0.0 0.0
						}
					}
				}
				JOINT Shoulder_L
				{
					OFFSET 12.9942 -0.242716 4.98039
					CHANNELS 6 Xposition Yposition Zposition Zrotation Xrotation Yrotation 
					JOINT UpperArm_L
					{
						OFFSET 5.34809 0.0 0.0
						CHANNELS 6 Xposition Yposition Zposition Zrotation Xrotation Yrotation 
						JOINT LowerArm_L
						{
							OFFSET 24.3286 1.87007e-05 0.0
							CHANNELS 6 Xposition Yposition Zposition Zrotation Xrotation Yrotation 
							JOINT Hand_L
							{
								OFFSET 22.2916 0.0 0.0
								CHANNELS 6 Xposition Yposition Zposition Zrotation Xrotation Yrotation 
								End Site
								{
									OFFSET 0.0 0.0 0.0
								}
							}
						}
					}
				}
				JOINT Shoulder_R
				{
					OFFSET 12.9945 -0.242716 -4.98039
					CHANNELS 6 Xposition Yposition Zposition Zrotation Xrotation Yrotation 
					JOINT UpperArm_R
					{
						OFFSET -5.34813 0.0 0.0
						CHANNELS 6 Xposition Yposition Zposition Zrotation Xrotation Yrotation 
						JOINT LowerArm_R
						{
							OFFSET -24.3289 0.000322201 0.0
							CHANNELS 6 Xposition Yposition Zposition Zrotation Xrotation Yrotation 
							JOINT Hand_R
							{
								OFFSET -22.2915 -0.000108084 0.0
								CHANNELS 6 Xposition Yposition Zposition Zrotation Xrotation Yrotation 
								End Site
								{
									OFFSET 0.0 0.0 0.0
								}
							}
						}
					}
				}
			}
		}
		JOINT UpperLeg_L
		{
			OFFSET -2.19248 -6.46944 0.0
			CHANNELS 6 Xposition Yposition Zposition Zrotation Xrotation Yrotation 
			JOINT LowerLeg_L
			{
				OFFSET 39.0811 0.0 -1.23785e-05
				CHANNELS 6 Xposition Yposition Zposition Zrotation Xrotation Yrotation 
				JOINT Foot_L
				{
					OFFSET 40.9854 0.0 -1.26872e-05
					CHANNELS 6 Xposition Yposition Zposition Zrotation Xrotation Yrotation 
					JOINT Toes_L
					{
						OFFSET 11.7543 0.0 0.0
						CHANNELS 6 Xposition Yposition Zposition Zrotation Xrotation Yrotation 
						End Site
						{
							OFFSET 0.0 0.0 0.0
						}
					}
				}
			}
		}
		JOINT UpperLeg_R
		{
			OFFSET -2.19251 6.46944 0.0
			CHANNELS 6 Xposition Yposition Zposition Zrotation Xrotation Yrotation 
			JOINT LowerLeg_R
			{
				OFFSET -39.0811 -0.00228153 -0.0401928
				CHANNELS 6 Xposition Yposition Zposition Zrotation Xrotation Yrotation 
				JOINT Foot_R
				{
					OFFSET -40.9854 0.0 0.0
					CHANNELS 6 Xposition Yposition Zposition Zrotation Xrotation Yrotation 
					JOINT Toes_R
					{
						OFFSET -11.7543 0.0 0.0
						CHANNELS 6 Xposition Yposition Zposition Zrotation Xrotation Yrotation 
						End Site
						{
							OFFSET 0.0 0.0 0.0
						}
					}
				}
			}
		}
	}
}
MOTION
Frames:	4
Frame Time:	0.0333333
0.000000 0.000000 0.000000 0.000000 0.000000 -0.000000 95.000800 88.499200 189.498000 -65.831800 73.037900 163.178000 15.735700 0.000005 -0.000001 107.920000 82.969000 -106.193000 8.984550 -0.406207 -0.000000 5.563740 4.283310 3.242790 16.377300 -0.000001 -0.000001 0.328513 6.528240 5.001800 6.456720 -0.000001 -0.000000 -9.935870 10.238700 1.904830 12.994200 -0.242716 4.980390 -90.597300 1.598260 -69.508200 5.348090 -0.000007 -0.000001 -63.633300 12.204000 12.668700 24.328600 0.000019 0.000005 3.193950 30.190800 -6.331730 22.291600 -0.000001 0.000005 10.480800 5.031940 6.629310 12.994500 -0.242716 -4.980390 88.772000 7.812890 -81.038700 -5.348130 -0.000001 -0.000004 -43.485300 9.579190 -37.040000 -24.328900 0.000322 -0.000009 -0.653544 -0.666210 -44.401100 -22.291500 -0.000108 -0.000004 22.997500 5.466730 -5.248820 -2.192480 -6.469440 -0.000000 173.999000 -28.427200 -25.226800 39.081100 -0.000007 -0.000012 0.179770 -0.294564 31.395500 40.985400 -0.000006 -0.000013 14.057900 -10.418100 -56.892000 11.754300 -0.000000 0.000003 -0.004017 -0.051626 -18.676800 -2.192510 6.469440 -0.000001 168.300000 17.783700 -173.317000 -39.081100 -0.002282 -0.040193 0.100334 -0.105486 42.618600 -40.985400 0.000008 0.000006 -1.973210 13.964800 -54.757400 -11.754300 -0.000006 -0.000006 -0.203110 -0.650244 -44.465800
0.000000 0.000000 0.000000 0.000000 0.000000 -0.000000 98.411400 87.496600 187.007000 -67.846400 72.578700 165.814000 15.735700 0.000005 -0.000001 106.435000 83.110300 -105.169000 8.984550 -0.406207 -0.000000 5.418540 3.863660 2.346080 16.377300 -0.000001 -0.000001 0.691288 6.782050 4.899460 6.456720 -0.000001 -0.000000 -9.200700 10.118400 2.082350 12.994200 -0.242716 4.980390 -91.023800 2.601860 -68.513500 5.348090 -0.000007 -0.000001 -62.298300 12.424200 11.182000 24.328600 0.000019 0.000005 3.232940 31.286800 -6.207460 22.291600 -0.000001 0.000005 12.750400 5.007320 7.162470 12.994500 -0.242716 -4.980390 88.654900 8.334670 -80.799200 -5.348130 -0.000001 -0.000004 -44.158400 9.464610 -36.653300 -24.328900 0.000322 -0.000009 -0.606767 -0.618916 -44.379400 -22.291500 -0.000108 -0.000004 23.285500 5.460850 -5.032230 -2.192480 -6.469440 -0.000000 174.594000 -23.918900 -24.920100 39.081100 -0.000007 -0.000012 -0.059008 0.073317 38.828800 40.985400 -0.000006 -0.000013 11.736500 -14.811500 -62.466400 11.754300 -0.000000 0.000003 -0.003077 -0.041478 -18.263700 -2.192510 6.469440 -0.000001 166.187000 16.827900 -174.932000 -39.081100 -0.002282 -0.040193 0.217290 -0.184456 49.246000 -40.985400 0.000008 0.000006 -1.089290 14.595700 -48.521800 -11.754300 -0.000006 -0.000006 -0.282991 -0.767881 -50.233500
0.000000 0.000000 0.000000 0.000000 0.000000 -0.000000 101.296000 86.797400 184.593000 -70.548000 70.283500 169.265000 15.735700 0.000005 -0.000001 103.554000 83.031400 -102.573000 8.984550 -0.406207 -0.000000 5.763120 3.241020 1.797770 16.377300 -0.000001 -0.000001 0.340458 6.323950 3.886410 6.456720 -0.000001 -0.000000 -8.736870 9.668230 1.923440 12.994200 -0.242716 4.980390 -91.262800 3.192380 -68.404600 5.348090 -0.000007 -0.000001 -62.292900 13.447400 6.810330 24.328600 0.000019 0.000005 2.092020 30.778600 -4.082430 22.291600 -0.000001 0.000005 13.945400 4.987910 7.575250 12.994500 -0.242716 -4.980390 88.548400 8.549670 -80.326600 -5.348130 -0.000001 -0.000004 -46.338400 8.869100 -34.119100 -24.328900 0.000322 -0.000009 0.041020 0.041724 -45.238000 -22.291500 -0.000108 -0.000004 23.707600 5.455360 -4.832240 -2.192480 -6.469440 -0.000000 174.615000 -20.945100 -23.234200 39.081100 -0.000007 -0.000012 -0.248037 0.266402 42.956100 40.985400 -0.000006 -0.000013 10.660800 -15.818600 -66.963300 11.754300 -0.000000 0.000003 -0.000187 -0.003092 -16.703000 -2.192510 6.469440 -0.000001 165.951000 14.547100 -178.449000 -39.081100 -0.002282 -0.040193 0.314776 -0.202877 56.929400 -40.985400 0.000008 0.000006 -1.906370 12.668400 -39.309900 -11.754300 -0.000006 -0.000006 -0.190587 -0.629236 -43.474200
0.000000 0.000000 0.000000 0.000000 0.000000 -0.000000 103.716000 86.234200 182.127000 -73.882700 68.534700 173.518000 15.735700 0.000005 -0.000001 103.790000 82.573600 -103.163000 8.984550 -0.406207 -0.000000 6.649260 3.523010 1.046840 16.377300 -0.000001 -0.000001 0.201681 5.812870 2.894260 6.456720 -0.000001 -0.000000 -8.695280 9.197420 0.143154 12.994200 -0.242716 4.980390 -91.216800 3.108650 -68.610900 5.348090 -0.000007 -0.000001 -63.871100 13.802500 0.388370 24.328600 0.000019 0.000005 1.354720 31.122900 -2.619510 22.291600 -0.000001 0.000005 12.671300 4.978340 7.776570 12.994500 -0.242716 -4.980390 88.565800 8.480340 -80.364800 -5.348130 -0.000001 -0.000004 -48.730600 8.312140 -29.894900 -24.328900 0.000322 -0.000009 -0.511867 -0.491068 -46.130900 -22.291500 -0.000108 -0.000004 24.539800 5.465010 -5.179320 -2.192480 -6.469440 -0.000000 173.837000 -22.193900 -20.478500 39.081100 -0.000007 -0.000012 -0.274552 0.275030 44.950800 40.985400 -0.000006 -0.000013 11.148600 -13.837600 -71.002600 11.754300 -0.000000 0.000003 -0.000002 -0.000030 -16.578700 -2.192510 6.469440 -0.000001 166.312000 10.269900 176.810000 -39.081100 -0.002282 -0.040193 0.312235 -0.150111 64.094500 -40.985400 0.000008 0.000006 -2.565490 9.738490 -28.950200 -11.754300 -0.000006 -0.000006 -0.042669 -0.270578 -27.695800
